# xmcd
#
# Track frame offsets: 
#        150
#        19248
#        40554
#        58614
#        77858
#        98147
#        121209
#        146305
#        168768
#        187936
#
# Disc length: 2742 seconds
#
# Revision: 0
# Processed by: cddbd v1.5.2PL0 Copyright (c) Steve Scherf et al.
# Submitted via: ExactAudioCopy v1.3
#
DISCID=720ab40a
DTITLE=Spencer MacKenzie - Cold November
DYEAR=2018
DGENRE=Blues
TTITLE0=Fine Place To Start
TTITLE1=Move On Down The Track
TTITLE2=Shut The Door (Baby Don't Look Back)
TTITLE3=Cold November
TTITLE4=Voices Echoing
TTITLE5=Haunt Me
TTITLE6=Your Mama's Crying
TTITLE7=She Don't Care
TTITLE8=You Move Me
TTITLE9=Next Door Neighbor Blues
EXTD=
EXTT0=
EXTT1=
EXTT2=
EXTT3=
EXTT4=
EXTT5=
EXTT6=
EXTT7=
EXTT8=
EXTT9=
PLAYORDER=
